<?xml version="1.0" encoding="utf-8"?>
<!-- Generator: Adobe Illustrator 25.4.1, SVG Export Plug-In . SVG Version: 6.00 Build 0)  -->
<svg version="1.1" id="Layer_1" xmlns="http://www.w3.org/2000/svg" xmlns:xlink="http://www.w3.org/1999/xlink" x="0px" y="0px"
	 viewBox="0 0 1880.2 355" style="enable-background:new 0 0 1880.2 355;" xml:space="preserve">
<path style="fill:#557CF2;" d="M127.6,1.6c0.1,0,0.2,0,0.4,0C127.8,1.6,127.7,1.6,127.6,1.6z"/>
<path style="fill:#557CF2;" d="M86.1,0c0.7,0,1.5,0,2.2,0C87.6,0,86.8,0,86.1,0z"/>
<path style="fill:#557CF2;" d="M79.8,0.2c0.7,0,1.4,0,2.1,0C81.2,0.1,80.5,0.1,79.8,0.2z"/>
<path style="fill:#557CF2;" d="M119.7,1c0.6,0,1.1,0.1,1.7,0.1C120.8,1,120.3,1,119.7,1z"/>
<path style="fill:#557CF2;" d="M106.8,0.3c0.6,0,1.3,0.1,1.9,0.1C108.1,0.3,107.5,0.3,106.8,0.3z"/>
<path style="fill:#557CF2;" d="M113.1,0.6c0.7,0,1.4,0.1,2.1,0.1C114.5,0.6,113.8,0.6,113.1,0.6z"/>
<path style="fill:#557CF2;" d="M73.7,0.4c0.4,0,0.7,0,1.1,0C74.4,0.3,74,0.3,73.7,0.4z"/>
<path style="fill:#557CF2;" d="M32.3,4.1c0.8-0.1,1.6-0.2,2.4-0.3C33.9,3.9,33.1,4,32.3,4.1z"/>
<path style="fill:#557CF2;" d="M26.2,5c0.8-0.1,1.6-0.2,2.4-0.4C27.8,4.8,27,4.9,26.2,5z"/>
<path style="fill:#557CF2;" d="M38.7,3.3c0.7-0.1,1.4-0.2,2.1-0.3C40.1,3.1,39.4,3.2,38.7,3.3z"/>
<path style="fill:#557CF2;" d="M52.9,1.8c0.8-0.1,1.5-0.1,2.3-0.2C54.4,1.6,53.6,1.7,52.9,1.8z"/>
<path style="fill:#557CF2;" d="M59.1,1.2c0.8-0.1,1.5-0.1,2.3-0.2C60.7,1.1,59.9,1.2,59.1,1.2z"/>
<path style="fill:#557CF2;" d="M46.8,2.3c0.5-0.1,1-0.1,1.5-0.1C47.8,2.3,47.3,2.3,46.8,2.3z"/>
<path style="fill:#557CF2;" d="M65.6,0.8c0.6,0,1.3-0.1,1.9-0.1C66.9,0.7,66.3,0.7,65.6,0.8z"/>
<path style="fill:#557CF2;" d="M193,12.8c0.6,0.2,1.2,0.3,1.8,0.5C194.2,13.1,193.6,13,193,12.8z"/>
<path style="fill:#557CF2;" d="M218.9,20.5c0.6,0.2,1.1,0.4,1.7,0.6C220,20.9,219.4,20.7,218.9,20.5z"/>
<path style="fill:#557CF2;" d="M212.9,18.5c0.5,0.2,1,0.3,1.4,0.5C213.9,18.9,213.4,18.7,212.9,18.5z"/>
<path style="fill:#557CF2;" d="M199.4,14.5c0.5,0.1,1,0.3,1.4,0.4C200.4,14.8,199.9,14.7,199.4,14.5z"/>
<path style="fill:#557CF2;" d="M20.1,6c0.6-0.1,1.2-0.2,1.8-0.3C21.3,5.8,20.7,5.9,20.1,6z"/>
<path style="fill:#557CF2;" d="M225.1,22.7c0.5,0.2,0.9,0.3,1.4,0.5C226.1,23,225.6,22.8,225.1,22.7z"/>
<path style="fill:#557CF2;" d="M546,236.4c71.9,35,148.4,59.6,227.2,73.3c23.3,4.1,47.1,7.3,70.7,9.6c23.3,2.2,46.9,3.6,70.3,4
	c0.2,0,0.4,0,0.6,0c-0.2,0-0.4,0-0.6,0c-23.4-0.4-47-1.7-70.3-4c-23.6-2.3-47.4-5.5-70.7-9.6C694.4,296.1,617.9,271.4,546,236.4
	c-5-2.5-10-5-15-7.5C536,231.4,541,234,546,236.4z"/>
<path style="fill:#557CF2;" d="M94.5,0c-0.6,0-1.2,0-1.8,0C93.3,0,93.9,0,94.5,0z"/>
<path style="fill:#557CF2;" d="M166.7,6.9c0.6,0.1,1.2,0.2,1.8,0.3C167.9,7.2,167.3,7.1,166.7,6.9z"/>
<path style="fill:#557CF2;" d="M146.6,3.7c0.5,0.1,1,0.1,1.6,0.2C147.6,3.8,147.1,3.8,146.6,3.7z"/>
<path style="fill:#557CF2;" d="M140,2.9c0.6,0.1,1.3,0.2,1.9,0.2C141.3,3,140.7,2.9,140,2.9z"/>
<path style="fill:#557CF2;" d="M160.5,5.8c0.5,0.1,1.1,0.2,1.6,0.3C161.6,6,161.1,5.9,160.5,5.8z"/>
<path style="fill:#557CF2;" d="M186.9,11.3c0.5,0.1,1,0.3,1.5,0.4C188,11.5,187.4,11.4,186.9,11.3z"/>
<path style="fill:#557CF2;" d="M173.2,8.2c0.5,0.1,1,0.2,1.5,0.3C174.2,8.4,173.7,8.3,173.2,8.2z"/>
<path style="fill:#557CF2;" d="M133.8,2.2c0.6,0.1,1.2,0.1,1.8,0.2C135,2.3,134.4,2.2,133.8,2.2z"/>
<path style="fill:#557CF2;" d="M100.6,0.1c0.3,0,0.5,0,0.8,0C101.2,0.1,100.9,0.1,100.6,0.1z"/>
<path style="fill:#557CF2;" d="M925.8,323.4c0.7,0,1.4,0,2.1,0C927.2,323.4,926.5,323.4,925.8,323.4z"/>
<path style="fill:#557CF2;" d="M940.7,323.4c-0.4,0-0.9,0-1.3,0C939.9,323.4,940.3,323.4,940.7,323.4z"/>
<path style="fill:#557CF2;" d="M966.1,322.7c-0.3,0-0.6,0-1,0C965.4,322.7,965.7,322.7,966.1,322.7z"/>
<path style="fill:#557CF2;" d="M1043.7,316.2c-0.8,0.1-1.5,0.2-2.3,0.3C1042.2,316.4,1042.9,316.3,1043.7,316.2z"/>
<path style="fill:#557CF2;" d="M1069.3,312.6c-1.2,0.2-2.4,0.4-3.7,0.6C1066.8,313,1068.1,312.8,1069.3,312.6z"/>
<path style="fill:#557CF2;" d="M1083.5,310.3c-1.6,0.3-3.2,0.6-4.8,0.8C1080.3,310.8,1081.9,310.6,1083.5,310.3z"/>
<path style="fill:#557CF2;" d="M1098.5,307.6c-3.1,0.6-6.3,1.2-9.4,1.7C1092.2,308.7,1095.4,308.1,1098.5,307.6z"/>
<path style="fill:#557CF2;" d="M1030,317.9c-0.4,0-0.8,0.1-1.2,0.1C1029.2,318,1029.6,317.9,1030,317.9z"/>
<path style="fill:#557CF2;" d="M1004.6,320.3c-0.3,0-0.7,0.1-1,0.1C1003.9,320.4,1004.2,320.4,1004.6,320.3z"/>
<path style="fill:#557CF2;" d="M1056.3,314.6c-0.5,0.1-1,0.2-1.6,0.2C1055.3,314.7,1055.8,314.6,1056.3,314.6z"/>
<path style="fill:#557CF2;" d="M5.8,8.7c0.8-0.2,1.7-0.3,2.5-0.5C7.5,8.4,6.6,8.6,5.8,8.7z"/>
<path style="fill:#557CF2;" d="M12.1,7.5c0.7-0.1,1.5-0.3,2.2-0.4C13.6,7.2,12.8,7.3,12.1,7.5z"/>
<path style="opacity:0.3;fill:#2A3F80;" d="M913.2,323.3c-23.4-0.4-47-1.7-70.3-4c-23.6-2.3-47.4-5.5-70.7-9.6
	c-78.8-13.6-155.3-38.3-227.2-73.3c-53.9-26.3-106.2-58.8-151.2-96.3c-51.5-42.9-96.1-89.6-162.4-114.8C158.4-2.4,77.1-6.8,1.3,9.5
	v252c23.5-26,125.2-112.7,359.8,1.2c132.5,64.3,273.7,86.2,405.7,86.2c132.2,0,255-22,350.6-45.3
	C1050.3,317.9,981.8,324.5,913.2,323.3z"/>
<path style="opacity:0.3;fill:#2A3F80;" d="M231.4,27.3c66.2,25.2,110.8,71.9,162.4,114.8c45,37.5,97.3,70,151.2,96.3
	c71.9,35,148.4,59.6,227.2,73.3c23.3,4.1,47.1,7.3,70.7,9.6c23.3,2.2,46.9,3.6,70.3,4c53.3,0.9,106.5-2.9,159-11.3
	c15.6-3.4,30.7-6.9,45.1-10.4c-67.1,14.3-135.5,20.9-204.1,19.7c-23.4-0.4-47-1.7-70.3-4c-23.6-2.3-47.4-5.5-70.7-9.6
	c-78.8-13.6-155.3-38.3-227.2-73.3c-53.9-26.3-106.2-58.8-151.2-96.3c-51.5-42.9-96.1-89.6-162.4-114.8C158.4-2.4,77.1-6.8,1.3,9.5
	v2C77.1-4.8,158.4-0.4,231.4,27.3z"/>
<g>
	<path style="fill:#557CF2;" d="M1880.2,253.2c-3.9-2-7.8-3.9-11.7-5.8c-16.7-8.1-34.1-15.5-51.6-22.2
		c-89.7-34-188.3-48.2-285.2-42.3c-59.4,3.7-112.6,17-164.9,34.4v0c-38.5,12.8-155.5,63.1-216.3,78.9
		c-104,27.1-251.5,48.6-383.6,48.6c-132,0-273.2-21.9-405.7-86.2C122,142.7,21,234.8,0,258.9V355h1366.7h513.5V253.2z"/>
	<path style="fill:#6699FF;" d="M1868.5,247.4c-16.7-8.1-34.1-15.5-51.6-22.2c-89.7-34-188.3-48.2-285.2-42.3
		c-59.4,3.7-112.6,17-164.9,34.4v0c-38.5,12.8-155.5,63.1-216.3,78.9c-104,27.1-251.5,48.6-383.6,48.6c-132,0-273.2-21.9-405.7-86.2
		C122,142.7,21,234.8,0,258.9v2c21-24,122-116.2,361.1-0.2c132.5,64.3,273.7,86.2,405.7,86.2c132.2,0,279.6-21.5,383.6-48.6
		c60.8-15.8,177.8-66.1,216.3-78.9v0c52.3-17.4,105.5-30.7,164.9-34.4c96.9-6,195.6,8.2,285.2,42.3c17.5,6.7,34.9,14.1,51.6,22.2
		c3.9,1.9,7.8,3.8,11.7,5.8v-2C1876.3,251.2,1872.4,249.3,1868.5,247.4z"/>
	<path style="fill:#557CF2;" d="M1162.3,288.8"/>
</g>
</svg>
